<svg width="50" height="50" version="1.1" viewBox="0 0 48 48" xmlns="http://www.w3.org/2000/svg">
                  <rect x="2.7391" y="12" width="42.5" height="35" ry="8.8587" fill="#004fc1" stop-color="#000000" stroke-linecap="round" stroke-linejoin="round" stroke-width=".725" style="-inkscape-stroke: none; paint-order: fill markers stroke" />
                  <rect x="2.7391" y="2.7508" width="42.5" height="35" ry="8.8587" fill="#0067fb" stop-color="#000000" stroke-linecap="round" stroke-linejoin="round" stroke-width=".725" style="-inkscape-stroke: none; paint-order: fill markers stroke" />
                  <!-- <rect x="6.2223" y="6" width="35.534" height="28.534" ry="7.6733" fill="#424242" stop-color="#000000" stroke-linecap="round" stroke-linejoin="round" stroke-width=".64364" style="opacity: 0.3; -inkscape-stroke: none; paint-order: fill markers stroke" /> -->
                  <path transform="translate(0 -2)" d="m32.848 12.855c-0.29629-0.08597-0.61513 0.01594-0.80664 0.25781l-0.01758-0.08398-9.7402 9.9883-4.584-4.5703c-0.29301-0.29136-0.76524-0.29483-1.0625-0.0078l-2.5449 2.4531c-0.30488 0.29464-0.3093 0.78191-0.0098 1.082l7.6699 7.668c0.2973 0.29768 0.77998 0.29678 1.0762-2e-3l12.914-13.002c0.29898-0.30065 0.2937-0.78793-0.01172-1.082l-2.6387-2.543-0.02148 0.03125c-0.06124-0.07698-0.13686-0.14133-0.22266-0.18945z" color="#000000" fill="#e6e6e6" stroke-linecap="round" stroke-linejoin="round" style="-inkscape-stroke: none; paint-order: stroke fill markers" />
                </svg>