<?xml version="1.0" encoding="UTF-8" standalone="no"?>
<svg
   width="550"
   height="380"
   version="1.1"
   viewBox="0 0 220 215.33334"
   id="svg10"
   xmlns="http://www.w3.org/2000/svg"
   xmlns:svg="http://www.w3.org/2000/svg">
  <defs
     id="defs14" />
  <path
     id="path870"
     style="color:#000000;fill:url(#linearGradient9963);stroke-width:1.76471;-inkscape-stroke:none;fill-opacity:1"
     d="M 300.27344 11.476562 C 297.96808 11.476562 296.11133 13.33137 296.11133 15.636719 L 296.11133 30.201172 C 296.11133 32.506522 297.96808 34.363281 300.27344 34.363281 L 314.83789 34.363281 C 317.14325 34.363281 319 32.506522 319 30.201172 L 319 15.636719 C 319 13.33137 317.14325 11.476562 314.83789 11.476562 L 300.27344 11.476562 z M 286.63281 18.064453 A 3.8145068 3.8145068 0 0 0 282.81836 21.878906 A 3.8145068 3.8145068 0 0 0 286.63281 25.693359 A 3.8145068 3.8145068 0 0 0 290.44922 21.878906 A 3.8145068 3.8145068 0 0 0 286.63281 18.064453 z M 328.70898 18.064453 A 3.8145068 3.8145068 0 0 0 324.89453 21.878906 A 3.8145068 3.8145068 0 0 0 328.70898 25.693359 A 3.8145068 3.8145068 0 0 0 332.52344 21.878906 A 3.8145068 3.8145068 0 0 0 328.70898 18.064453 z M 403.47461 18.134766 C 399.29843 18.176559 391.56059 19.42311 386.81055 27.339844 C 383.52996 32.807504 379.36942 35.148621 376.01953 36.144531 C 375.25816 36.370884 374.54335 36.524583 373.88867 36.630859 C 373.24949 36.59786 372.66708 36.594416 372.16211 36.607422 C 371.03296 36.636511 370.31721 36.739002 370.13477 36.767578 A 2.0313689 2.0313689 0 0 0 368.45312 35.083984 A 2.0313689 2.0313689 0 0 0 366.41992 37.117188 A 2.0313689 2.0313689 0 0 0 368.45312 39.148438 A 2.0313689 2.0313689 0 0 0 370.14062 37.460938 C 370.41658 37.494125 371.88494 37.639233 373.97656 37.304688 C 378.14233 37.532548 384.79321 39.097396 389.02734 46.154297 C 392.39486 51.766822 396.72804 54.228215 400.21094 55.263672 C 403.61498 56.275682 406.16037 55.937761 406.27734 55.921875 A 2.0313689 2.0313689 0 0 0 407.9707 57.615234 A 2.0313689 2.0313689 0 0 0 410.00195 55.583984 A 2.0313689 2.0313689 0 0 0 407.9707 53.552734 A 2.0313689 2.0313689 0 0 0 406.26172 55.261719 L 406.25977 55.246094 C 406.25977 55.246094 403.75419 55.605285 400.4043 54.609375 C 397.05441 53.613467 392.89387 51.274301 389.61328 45.806641 C 385.87383 39.574227 380.28273 37.476991 376.03516 36.845703 C 376.09467 36.828693 376.15288 36.814716 376.21289 36.796875 C 379.69578 35.761418 384.02897 33.300025 387.39648 27.6875 C 393.93708 16.786492 406.25 18.984373 406.25 18.984375 L 406.36719 18.316406 C 406.36719 18.316406 405.56734 18.17426 404.26172 18.140625 C 404.01691 18.134319 403.75302 18.131979 403.47461 18.134766 z M 84.910156 26.402344 C 82.604807 26.402344 80.748047 28.259103 80.748047 30.564453 L 80.748047 45.128906 C 80.748047 47.434254 82.604807 49.289066 84.910156 49.289062 L 99.474609 49.289062 C 101.77996 49.289063 103.63477 47.434254 103.63477 45.128906 L 103.63477 30.564453 C 103.63477 28.259103 101.77996 26.402344 99.474609 26.402344 L 84.910156 26.402344 z M 207.12109 27.494141 C 206.84268 27.491341 206.58074 27.495653 206.33594 27.501953 C 205.03031 27.535593 204.22852 27.677734 204.22852 27.677734 L 204.3457 28.345703 C 204.3457 28.345703 216.66261 26.147818 223.20312 37.048828 C 226.57064 42.661351 230.90186 45.122746 234.38477 46.158203 C 237.7888 47.170213 240.33613 46.830423 240.45312 46.814453 A 2.0313689 2.0313689 0 0 0 242.14648 48.507812 A 2.0313689 2.0313689 0 0 0 244.17773 46.476562 A 2.0313689 2.0313689 0 0 0 242.14648 44.445312 A 2.0313689 2.0313689 0 0 0 240.43945 46.152344 L 240.4375 46.140625 C 240.4375 46.140625 237.92996 46.501769 234.58008 45.505859 C 231.2302 44.509951 227.06575 42.168832 223.78516 36.701172 C 219.03511 28.784438 211.29728 27.535937 207.12109 27.494141 z M 432.53711 29.621094 C 431.30942 29.621094 430.32031 30.610206 430.32031 31.837891 L 430.32031 39.59375 C 430.32031 40.821436 431.30942 41.808594 432.53711 41.808594 L 440.29297 41.808594 C 441.52065 41.808594 442.50781 40.821436 442.50781 39.59375 L 442.50781 31.837891 C 442.50781 30.610206 441.52065 29.621094 440.29297 29.621094 L 432.53711 29.621094 z M 353.30859 31.576172 C 352.08092 31.576172 351.09375 32.565282 351.09375 33.792969 L 351.09375 41.548828 C 351.09375 42.776513 352.08092 43.763672 353.30859 43.763672 L 361.06445 43.763672 C 362.29214 43.763672 363.28125 42.776513 363.28125 41.548828 L 363.28125 33.792969 C 363.28125 32.565282 362.29214 31.576172 361.06445 31.576172 L 353.30859 31.576172 z M 71.269531 32.992188 A 3.8145068 3.8145068 0 0 0 67.455078 36.806641 A 3.8145068 3.8145068 0 0 0 71.269531 40.621094 A 3.8145068 3.8145068 0 0 0 75.083984 36.806641 A 3.8145068 3.8145068 0 0 0 71.269531 32.992188 z M 113.3457 32.992188 A 3.8145068 3.8145068 0 0 0 109.53125 36.806641 A 3.8145068 3.8145068 0 0 0 113.3457 40.621094 A 3.8145068 3.8145068 0 0 0 117.16016 36.806641 A 3.8145068 3.8145068 0 0 0 113.3457 32.992188 z M 447.67969 33.130859 A 2.0313689 2.0313689 0 0 0 445.64844 35.162109 A 2.0313689 2.0313689 0 0 0 447.67969 37.193359 A 2.0313689 2.0313689 0 0 0 449.25977 35.613281 C 451.44473 35.349507 461.84946 34.655343 467.68359 44.378906 C 471.05111 49.991431 475.38232 52.450871 478.86523 53.486328 C 482.09539 54.446646 484.59007 54.194366 484.93945 54.152344 A 2.0313689 2.0313689 0 0 0 486.625 55.837891 A 2.0313689 2.0313689 0 0 0 488.65625 53.806641 A 2.0313689 2.0313689 0 0 0 486.625 51.775391 A 2.0313689 2.0313689 0 0 0 484.91992 53.480469 L 484.91797 53.46875 C 484.91797 53.46875 482.40848 53.829894 479.05859 52.833984 C 475.70872 51.838076 471.54621 49.495002 468.26562 44.027344 C 463.19895 35.582828 454.73329 34.731147 450.81641 34.832031 C 450.25702 34.846442 449.81356 34.880252 449.46289 34.914062 A 2.0313689 2.0313689 0 0 0 447.67969 33.130859 z M 249.5332 40.9375 C 248.30552 40.9375 247.31641 41.924659 247.31641 43.152344 L 247.31641 50.910156 C 247.31641 52.137841 248.30552 53.125 249.5332 53.125 L 257.28906 53.125 C 258.51674 53.125 259.50391 52.137841 259.50391 50.910156 L 259.50391 43.152344 C 259.50391 41.924659 258.51674 40.9375 257.28906 40.9375 L 249.5332 40.9375 z M 6.4609375 45.96875 C 5.2332521 45.96875 4.2460937 46.955909 4.2460938 48.183594 L 4.2460938 55.939453 C 4.2460938 57.167139 5.2332521 58.15625 6.4609375 58.15625 L 14.216797 58.15625 C 15.444482 58.15625 16.433594 57.167139 16.433594 55.939453 L 16.433594 48.183594 C 16.433594 46.955909 15.444482 45.96875 14.216797 45.96875 L 6.4609375 45.96875 z M 494.01172 48.265625 C 492.78403 48.265625 491.79687 49.254737 491.79688 50.482422 L 491.79688 58.238281 C 491.79688 59.465967 492.78403 60.455078 494.01172 60.455078 L 501.76953 60.455078 C 502.99722 60.455078 503.98437 59.465967 503.98438 58.238281 L 503.98438 50.482422 C 503.98438 49.254737 502.99722 48.265625 501.76953 48.265625 L 494.01172 48.265625 z M 21.603516 49.476562 A 2.0313689 2.0313689 0 0 0 19.572266 51.507812 A 2.0313689 2.0313689 0 0 0 21.603516 53.539062 A 2.0313689 2.0313689 0 0 0 23.460938 51.933594 C 26.138137 51.66248 35.990666 51.363365 41.607422 60.724609 C 44.974946 66.337133 49.308106 68.798527 52.791016 69.833984 C 55.778787 70.722238 58.052237 70.57547 58.669922 70.513672 A 2.0313689 2.0313689 0 0 0 60.550781 72.183594 A 2.0313689 2.0313689 0 0 0 62.582031 70.152344 A 2.0313689 2.0313689 0 0 0 60.550781 68.121094 A 2.0313689 2.0313689 0 0 0 58.652344 69.833984 C 58.195107 69.885104 55.980048 70.072244 52.984375 69.181641 C 49.634489 68.185731 45.470059 65.842659 42.189453 60.375 C 37.439407 52.458264 29.701579 51.211718 25.525391 51.169922 C 25.246978 51.167122 24.983087 51.169435 24.738281 51.175781 C 24.248669 51.188391 23.859195 51.216184 23.527344 51.246094 A 2.0313689 2.0313689 0 0 0 21.603516 49.476562 z M 415.35742 50.042969 C 414.12973 50.042969 413.14258 51.032079 413.14258 52.259766 L 413.14258 60.015625 C 413.14258 61.24331 414.12973 62.230469 415.35742 62.230469 L 423.11523 62.230469 C 424.34292 62.230469 425.33008 61.24331 425.33008 60.015625 L 425.33008 52.259766 C 425.33008 51.032079 424.34292 50.042969 423.11523 50.042969 L 415.35742 50.042969 z M 185.64062 60.226562 C 184.413 60.226562 183.42383 61.215675 183.42383 62.443359 L 183.42383 70.199219 C 183.42383 71.426905 184.413 72.416016 185.64062 72.416016 L 193.39648 72.416016 C 194.62417 72.416016 195.61328 71.426905 195.61328 70.199219 L 195.61328 62.443359 C 195.61328 61.215675 194.62417 60.226562 193.39648 60.226562 L 185.64062 60.226562 z M 178.25391 63.736328 A 2.0313689 2.0313689 0 0 0 176.47266 65.517578 C 176.12179 65.482984 175.67948 65.449982 175.11914 65.435547 C 171.20225 65.334659 162.73468 66.190249 157.66797 74.634766 C 154.38737 80.102424 150.22292 82.445498 146.87305 83.441406 C 143.52317 84.437316 141.01758 84.074219 141.01758 84.074219 L 141.01562 84.089844 A 2.0313689 2.0313689 0 0 0 139.30664 82.380859 A 2.0313689 2.0313689 0 0 0 137.27539 84.412109 A 2.0313689 2.0313689 0 0 0 139.30664 86.443359 A 2.0313689 2.0313689 0 0 0 140.99023 84.759766 C 141.3405 84.801832 143.83857 85.052006 147.06836 84.091797 C 150.55126 83.05634 154.88249 80.598853 158.25 74.986328 C 164.0886 65.255332 174.50236 65.957395 176.67578 66.220703 A 2.0313689 2.0313689 0 0 0 178.25391 67.798828 A 2.0313689 2.0313689 0 0 0 180.28516 65.767578 A 2.0313689 2.0313689 0 0 0 178.25391 63.736328 z M 67.9375 64.613281 C 66.709815 64.613281 65.722656 65.60044 65.722656 66.828125 L 65.722656 74.585938 C 65.722656 75.813614 66.709815 76.800781 67.9375 76.800781 L 75.693359 76.800781 C 76.921045 76.800781 77.910156 75.813614 77.910156 74.585938 L 77.910156 66.828125 C 77.910156 65.60044 76.921045 64.613281 75.693359 64.613281 L 67.9375 64.613281 z M 124.16406 78.873047 C 122.93638 78.873047 121.94727 79.860206 121.94727 81.087891 L 121.94727 88.84375 C 121.94727 90.071436 122.93638 91.060547 124.16406 91.060547 L 131.91992 91.060547 C 133.14761 91.060547 134.13672 90.071436 134.13672 88.84375 L 134.13672 81.087891 C 134.13672 79.860206 133.14761 78.873047 131.91992 78.873047 L 124.16406 78.873047 z M 518.01172 84.455078 C 516.78403 84.455078 515.79688 85.442237 515.79688 86.669922 L 515.79688 94.427734 C 515.79687 95.655419 516.78403 96.642578 518.01172 96.642578 L 525.76953 96.642578 C 526.99722 96.642578 527.98438 95.655419 527.98438 94.427734 L 527.98438 86.669922 C 527.98438 85.442237 526.99722 84.455078 525.76953 84.455078 L 518.01172 84.455078 z M 510.625 89.072266 A 2.0313689 2.0313689 0 0 0 508.63086 90.730469 C 508.32771 90.708338 507.86406 90.687423 507.24414 90.707031 C 506.14281 90.741849 504.60473 90.906099 502.86328 91.423828 C 499.38037 92.459285 495.05109 94.916757 491.68359 100.5293 C 485.14298 111.4303 472.82617 109.23633 472.82617 109.23633 L 472.70898 109.9043 C 472.70898 109.9043 485.51005 112.14021 492.26562 100.88086 C 495.54621 95.413194 499.70677 93.070129 503.05664 92.074219 C 505.7573 91.271323 507.88745 91.35114 508.62109 91.412109 A 2.0313689 2.0313689 0 0 0 510.625 93.134766 A 2.0313689 2.0313689 0 0 0 512.65625 91.103516 A 2.0313689 2.0313689 0 0 0 510.625 89.072266 z M 74.046875 107.48242 C 72.81919 107.48242 71.830078 108.46958 71.830078 109.69727 L 71.830078 117.45508 C 71.830078 118.68276 72.81919 119.66992 74.046875 119.66992 L 81.802734 119.66992 C 83.03042 119.66992 84.019531 118.68276 84.019531 117.45508 L 84.019531 109.69727 C 84.019531 108.46958 83.03042 107.48242 81.802734 107.48242 L 74.046875 107.48242 z M 383.73242 107.51562 C 382.50474 107.51562 381.51563 108.50278 381.51562 109.73047 L 381.51562 117.48828 C 381.51562 118.71597 382.50474 119.70312 383.73242 119.70312 L 391.48828 119.70312 C 392.71597 119.70312 393.70508 118.71597 393.70508 117.48828 L 393.70508 109.73047 C 393.70508 108.50278 392.71597 107.51563 391.48828 107.51562 L 383.73242 107.51562 z M 89.189453 112.09961 A 2.0313689 2.0313689 0 0 0 87.158203 114.13086 A 2.0313689 2.0313689 0 0 0 89.189453 116.16211 A 2.0313689 2.0313689 0 0 0 90.896484 114.45508 L 90.898438 114.46875 C 90.898438 114.46875 93.40794 114.10565 96.757812 115.10156 C 100.10769 116.09747 104.26823 118.44054 107.54883 123.9082 C 114.30444 135.16756 127.10547 132.93164 127.10547 132.93164 L 126.98828 132.26367 C 126.98828 132.26367 114.67342 134.45765 108.13281 123.55664 C 104.7653 117.94412 100.43408 115.48663 96.951172 114.45117 C 95.209721 113.93344 93.671645 113.76915 92.570312 113.73438 C 91.633209 113.70475 91.039816 113.76565 90.875 113.78516 A 2.0313689 2.0313689 0 0 0 89.189453 112.09961 z M 398.875 112.13281 A 2.0313689 2.0313689 0 0 0 396.84375 114.16406 A 2.0313689 2.0313689 0 0 0 398.875 116.19531 A 2.0313689 2.0313689 0 0 0 400.58594 114.48438 L 400.58789 114.5 C 400.58789 114.5 403.09349 114.14081 406.44336 115.13672 C 409.79325 116.13263 413.95377 118.47179 417.23438 123.93945 C 422.87851 133.34645 432.71576 133.33431 435.80859 133.07617 A 2.0313689 2.0313689 0 0 0 437.82227 134.83984 A 2.0313689 2.0313689 0 0 0 439.85352 132.80859 A 2.0313689 2.0313689 0 0 0 437.82227 130.77734 A 2.0313689 2.0313689 0 0 0 435.83594 132.39453 C 432.98903 132.66034 423.34939 132.81347 417.81641 123.5918 C 414.44889 117.97927 410.11961 115.51978 406.63672 114.48438 C 404.89527 113.96665 403.35719 113.8024 402.25586 113.76758 C 401.31436 113.73781 400.7211 113.79917 400.56055 113.81836 A 2.0313689 2.0313689 0 0 0 398.875 112.13281 z M 38.689453 124.93945 C 36.384105 124.93945 34.529297 126.79426 34.529297 129.09961 L 34.529297 143.66406 C 34.529297 145.96941 36.384105 147.82617 38.689453 147.82617 L 53.253906 147.82617 C 55.559254 147.82617 57.416016 145.96941 57.416016 143.66406 L 57.416016 129.09961 C 57.416016 126.79426 55.559254 124.93945 53.253906 124.93945 L 38.689453 124.93945 z M 445.20898 126.16016 C 443.9813 126.16016 442.99219 127.14927 442.99219 128.37695 L 442.99219 136.13281 C 442.99219 137.3605 443.9813 138.34766 445.20898 138.34766 L 452.96484 138.34766 C 454.19253 138.34766 455.18164 137.3605 455.18164 136.13281 L 455.18164 128.37695 C 455.18164 127.14927 454.19253 126.16016 452.96484 126.16016 L 445.20898 126.16016 z M 24.818359 133.60938 A 3.8145068 3.8145068 0 0 0 21.003906 137.42383 A 3.8145068 3.8145068 0 0 0 24.818359 141.23828 A 3.8145068 3.8145068 0 0 0 28.632812 137.42383 A 3.8145068 3.8145068 0 0 0 24.818359 133.60938 z M 66.894531 133.60938 A 3.8145068 3.8145068 0 0 0 63.080078 137.42383 A 3.8145068 3.8145068 0 0 0 66.894531 141.23828 A 3.8145068 3.8145068 0 0 0 70.708984 137.42383 A 3.8145068 3.8145068 0 0 0 66.894531 133.60938 z M 406.00781 150.68945 C 401.83164 150.73125 394.0938 151.9778 389.34375 159.89453 C 386.06316 165.36219 381.89872 167.70331 378.54883 168.69922 C 375.19896 169.69513 372.69336 169.33594 372.69336 169.33594 L 372.69141 169.34766 A 2.0313689 2.0313689 0 0 0 370.98438 167.64062 A 2.0313689 2.0313689 0 0 0 368.95312 169.67188 A 2.0313689 2.0313689 0 0 0 370.98438 171.70312 A 2.0313689 2.0313689 0 0 0 372.67188 170.01562 C 373.04196 170.06001 375.53246 170.30892 378.74609 169.35352 C 382.22901 168.31806 386.55828 165.85667 389.92578 160.24414 C 396.4664 149.34313 408.7832 151.54102 408.7832 151.54102 L 408.90039 150.87109 C 408.90039 150.87109 408.10056 150.72895 406.79492 150.69531 C 406.55012 150.68901 406.28622 150.68667 406.00781 150.68945 z M 476.88672 162.01562 C 473.53858 162.01562 470.84375 164.71045 470.84375 168.05859 L 470.84375 189.21094 C 470.84375 192.55908 473.53858 195.25586 476.88672 195.25586 L 498.03906 195.25586 C 501.3872 195.25586 504.08398 192.55908 504.08398 189.21094 L 504.08398 168.05859 C 504.08398 164.71045 501.3872 162.01562 498.03906 162.01562 L 476.88672 162.01562 z M 355.83984 164.13281 C 354.61217 164.13281 353.625 165.11997 353.625 166.34766 L 353.625 174.10352 C 353.625 175.3312 354.61217 176.32031 355.83984 176.32031 L 363.59766 176.32031 C 364.82534 176.32031 365.8125 175.3312 365.8125 174.10352 L 365.8125 166.34766 C 365.8125 165.11997 364.82534 164.13281 363.59766 164.13281 L 355.83984 164.13281 z M 106.94531 170.20703 C 105.71763 170.20703 104.72852 171.19614 104.72852 172.42383 L 104.72852 180.17969 C 104.72852 181.40737 105.71763 182.39648 106.94531 182.39648 L 114.70117 182.39648 C 115.92886 182.39648 116.91797 181.40737 116.91797 180.17969 L 116.91797 172.42383 C 116.91797 171.19614 115.92886 170.20703 114.70117 170.20703 L 106.94531 170.20703 z M 457.07812 171.58398 A 5.5399525 5.5399525 0 0 0 451.53711 177.125 A 5.5399525 5.5399525 0 0 0 457.07812 182.66406 A 5.5399525 5.5399525 0 0 0 462.61719 177.125 A 5.5399525 5.5399525 0 0 0 457.07812 171.58398 z M 518.18555 171.58398 A 5.5399525 5.5399525 0 0 0 512.64453 177.125 A 5.5399525 5.5399525 0 0 0 518.18555 182.66406 A 5.5399525 5.5399525 0 0 0 523.72461 177.125 A 5.5399525 5.5399525 0 0 0 518.18555 171.58398 z M 122.08789 174.82422 A -2.0313689 2.0313689 0 0 0 120.05664 176.85547 A -2.0313689 2.0313689 0 0 0 122.08789 178.88672 A -2.0313689 2.0313689 0 0 0 123.79492 177.17969 L 123.79688 177.19141 C 123.79688 177.19141 126.30637 176.83227 129.65625 177.82812 C 133.00613 178.82404 137.16667 181.16709 140.44727 186.63477 C 146.09065 196.04038 155.92714 196.02835 159.02148 195.76953 A 2.0313689 2.0313689 0 0 0 161.03516 197.5332 A 2.0313689 2.0313689 0 0 0 163.06641 195.50195 A 2.0313689 2.0313689 0 0 0 161.03516 193.46875 A 2.0313689 2.0313689 0 0 0 159.04883 195.08984 C 156.20193 195.35489 146.56426 195.50487 141.03125 186.2832 C 137.66374 180.67068 133.33251 178.21319 129.84961 177.17773 C 128.10816 176.66 126.57008 176.49575 125.46875 176.46094 C 125.19342 176.45223 124.9459 176.45122 124.72852 176.45508 C 124.1259 176.46578 123.83146 176.5087 123.7793 176.51562 A -2.0313689 2.0313689 0 0 0 122.08789 174.82422 z M 168.42188 188.85352 C 167.19419 188.85352 166.20508 189.84067 166.20508 191.06836 L 166.20508 198.82422 C 166.20508 200.0519 167.19419 201.04102 168.42188 201.04102 L 176.17773 201.04102 C 177.40542 201.04102 178.39453 200.0519 178.39453 198.82422 L 178.39453 191.06836 C 178.39453 189.84067 177.40542 188.85352 176.17773 188.85352 L 168.42188 188.85352 z M 45.617188 191.09961 C 44.389502 191.09961 43.400391 192.08677 43.400391 193.31445 L 43.400391 201.07031 C 43.400391 202.298 44.389502 203.28711 45.617188 203.28711 L 53.373047 203.28711 C 54.600732 203.28711 55.589844 202.298 55.589844 201.07031 L 55.589844 193.31445 C 55.589844 192.08677 54.600732 191.09961 53.373047 191.09961 L 45.617188 191.09961 z M 60.759766 194.60742 A 2.0313689 2.0313689 0 0 0 58.728516 196.63867 A 2.0313689 2.0313689 0 0 0 60.759766 198.66992 A 2.0313689 2.0313689 0 0 0 62.337891 197.0918 C 64.516133 196.82828 74.925082 196.12969 80.761719 205.85742 C 84.129231 211.46995 88.462416 213.92743 91.945312 214.96289 C 95.182014 215.92515 97.682178 215.6721 98.023438 215.63086 A 2.0313689 2.0313689 0 0 0 99.707031 217.31445 A 2.0313689 2.0313689 0 0 0 101.73828 215.2832 A 2.0313689 2.0313689 0 0 0 99.707031 213.25195 A 2.0313689 2.0313689 0 0 0 97.998047 214.96094 L 97.996094 214.94531 C 97.996094 214.94531 95.48855 215.30841 92.138672 214.3125 C 88.788794 213.31659 84.62825 210.9735 81.347656 205.50586 C 76.280937 197.06125 67.813371 196.20966 63.896484 196.31055 C 63.337723 196.32497 62.895458 196.35879 62.544922 196.39258 A 2.0313689 2.0313689 0 0 0 60.759766 194.60742 z M 38.230469 195.71484 A 2.0313689 2.0313689 0 0 0 36.236328 197.375 C 35.93346 197.35276 35.470655 197.3319 34.847656 197.35156 C 33.746323 197.38633 32.212154 197.55063 30.470703 198.06836 C 26.9878 199.10382 22.654623 201.5613 19.287109 207.17383 C 12.746503 218.07484 0.43359375 215.88086 0.43359375 215.88086 L 0.3125 216.54883 C 0.3125 216.54883 13.113526 218.78474 19.869141 207.52539 C 23.149736 202.05771 27.314191 199.71466 30.664062 198.71875 C 33.364717 197.91585 35.491829 197.99372 36.224609 198.05469 A 2.0313689 2.0313689 0 0 0 38.230469 199.7793 A 2.0313689 2.0313689 0 0 0 40.261719 197.74609 A 2.0313689 2.0313689 0 0 0 38.230469 195.71484 z M 252.92773 201.90039 C 251.70005 201.90039 250.71094 202.8895 250.71094 204.11719 L 250.71094 211.87305 C 250.71094 213.10073 251.70005 214.08984 252.92773 214.08984 L 260.68359 214.08984 C 261.91128 214.08984 262.90039 213.10073 262.90039 211.87305 L 262.90039 204.11719 C 262.90039 202.8895 261.91128 201.90039 260.68359 201.90039 L 252.92773 201.90039 z M 268.07031 205.41016 A 2.0313689 2.0313689 0 0 0 266.03906 207.44141 A 2.0313689 2.0313689 0 0 0 268.07031 209.47266 A 2.0313689 2.0313689 0 0 0 269.64844 207.89453 C 271.82277 207.63119 282.23601 206.92782 288.07422 216.6582 C 291.44174 222.27071 295.77492 224.73024 299.25781 225.76562 C 302.48512 226.72509 304.9791 226.474 305.33203 226.43164 A 2.0313689 2.0313689 0 0 0 307.01758 228.11719 A 2.0313689 2.0313689 0 0 0 309.04883 226.08594 A 2.0313689 2.0313689 0 0 0 307.01758 224.05469 A 2.0313689 2.0313689 0 0 0 305.30859 225.76367 L 305.30664 225.74805 C 305.30664 225.74805 302.80104 226.10919 299.45117 225.11328 C 296.10128 224.11739 291.93686 221.7743 288.65625 216.30664 C 283.58955 207.86212 275.12197 207.01044 271.20508 207.11133 C 270.64637 207.12575 270.20404 207.15958 269.85352 207.19336 A 2.0313689 2.0313689 0 0 0 268.07031 205.41016 z M 107.09375 209.74414 C 105.86606 209.74414 104.87695 210.73325 104.87695 211.96094 L 104.87695 219.7168 C 104.87695 220.94448 105.86606 221.93164 107.09375 221.93164 L 114.84961 221.93164 C 116.07729 221.93164 117.06641 220.94448 117.06641 219.7168 L 117.06641 211.96094 C 117.06641 210.73325 116.07729 209.74414 114.84961 209.74414 L 107.09375 209.74414 z M 372.75391 211.00586 C 371.52622 211.00586 370.53711 211.99497 370.53711 213.22266 L 370.53711 220.97852 C 370.53711 222.2062 371.52622 223.19531 372.75391 223.19531 L 380.50977 223.19531 C 381.73745 223.19531 382.72461 222.2062 382.72461 220.97852 L 382.72461 213.22266 C 382.72461 211.99497 381.73745 211.00586 380.50977 211.00586 L 372.75391 211.00586 z M 545.72656 213.32031 C 541.55038 213.36169 533.81255 214.60474 529.0625 222.52148 C 525.78191 227.98916 521.61747 230.33226 518.26758 231.32812 C 514.91771 232.32404 512.41211 231.96484 512.41211 231.96484 L 512.41016 231.97852 A 2.0313689 2.0313689 0 0 0 510.70117 230.26953 A 2.0313689 2.0313689 0 0 0 508.66992 232.30078 A 2.0313689 2.0313689 0 0 0 510.70117 234.33203 A 2.0313689 2.0313689 0 0 0 512.38672 232.64648 C 512.74466 232.68932 515.2377 232.93873 518.46094 231.98047 C 521.94383 230.94501 526.27701 228.48557 529.64453 222.87305 C 536.18515 211.97204 548.49805 214.16797 548.49805 214.16797 L 548.61914 213.49805 C 548.61914 213.49805 547.81931 213.35988 546.51367 213.32617 C 546.26887 213.31986 546.00497 213.31755 545.72656 213.32031 z M 387.89648 214.51562 A 2.0313689 2.0313689 0 0 0 385.86523 216.54688 A 2.0313689 2.0313689 0 0 0 387.89648 218.57812 A 2.0313689 2.0313689 0 0 0 389.47266 217.00195 C 390.79048 216.84065 395.23462 216.50172 399.85352 218.54883 C 402.7284 219.82298 405.65493 222.02322 407.90039 225.76562 C 411.26791 231.37815 415.59914 233.83563 419.08203 234.87109 C 422.31914 235.83347 424.81743 235.5783 425.1582 235.53711 A 2.0313689 2.0313689 0 0 0 426.84375 237.22266 A 2.0313689 2.0313689 0 0 0 428.875 235.19141 A 2.0313689 2.0313689 0 0 0 426.84375 233.16016 A 2.0313689 2.0313689 0 0 0 425.13672 234.86719 L 425.13477 234.85352 C 425.13477 234.85352 422.62526 235.21661 419.27539 234.2207 C 415.92552 233.22479 411.76492 230.8817 408.48438 225.41406 C 403.41768 216.96954 394.95009 216.11786 391.0332 216.21875 C 390.47472 216.23317 390.03212 216.26701 389.68164 216.30078 A 2.0313689 2.0313689 0 0 0 387.89648 214.51562 z M 314.4043 220.54492 C 313.17661 220.54492 312.1875 221.53403 312.1875 222.76172 L 312.1875 230.51758 C 312.1875 231.74526 313.17661 232.73437 314.4043 232.73438 L 322.16016 232.73438 C 323.38784 232.73438 324.37695 231.74526 324.37695 230.51758 L 324.37695 222.76172 C 324.37695 221.53403 323.38784 220.54492 322.16016 220.54492 L 314.4043 220.54492 z M 495.55859 226.75977 C 494.33091 226.75977 493.3418 227.74887 493.3418 228.97656 L 493.3418 236.73242 C 493.3418 237.96011 494.33091 238.94922 495.55859 238.94922 L 503.31445 238.94922 C 504.54214 238.94922 505.5293 237.96011 505.5293 236.73242 L 505.5293 228.97656 C 505.5293 227.74887 504.54214 226.75977 503.31445 226.75977 L 495.55859 226.75977 z M 434.23047 229.65234 C 433.00278 229.65234 432.01367 230.6395 432.01367 231.86719 L 432.01367 239.62305 C 432.01367 240.85073 433.00278 241.83984 434.23047 241.83984 L 441.98633 241.83984 C 443.21401 241.83984 444.20117 240.85073 444.20117 239.62305 L 444.20117 231.86719 C 444.20117 230.6395 443.21401 229.65234 441.98633 229.65234 L 434.23047 229.65234 z M 143.2207 231.06055 C 142.02648 231.06055 141.06445 232.02062 141.06445 233.21484 L 141.06445 240.75977 C 141.06445 241.95399 142.02648 242.91602 143.2207 242.91602 L 150.76562 242.91602 C 151.95985 242.91602 152.91992 241.95399 152.91992 240.75977 L 152.91992 233.21484 C 152.91992 232.02062 151.95985 231.06055 150.76562 231.06055 L 143.2207 231.06055 z M 231.79492 233.55078 C 230.6007 233.55078 229.63867 234.51281 229.63867 235.70703 L 229.63867 243.25195 C 229.63867 244.44618 230.6007 245.40625 231.79492 245.40625 L 239.33984 245.40625 C 240.53407 245.40625 241.49609 244.44618 241.49609 243.25195 L 241.49609 235.70703 C 241.49609 234.51281 240.53407 233.55078 239.33984 233.55078 L 231.79492 233.55078 z M 136.03516 234.47266 A 1.9760044 1.9760044 0 0 0 134.29883 236.20898 C 133.95828 236.17666 133.52899 236.14286 132.98633 236.12891 C 129.17619 236.03079 120.93643 236.85985 116.00781 245.07422 C 112.81663 250.39287 108.76834 252.6699 105.50977 253.63867 C 102.25119 254.60742 99.8125 254.25977 99.8125 254.25977 L 99.810547 254.27148 A 1.9760044 1.9760044 0 0 0 98.150391 252.60938 A 1.9760044 1.9760044 0 0 0 96.173828 254.58594 A 1.9760044 1.9760044 0 0 0 98.150391 256.5625 A 1.9760044 1.9760044 0 0 0 99.794922 254.91602 C 99.906259 254.93105 102.38621 255.25839 105.69922 254.27344 C 109.08719 253.2662 113.30044 250.87362 116.57617 245.41406 C 122.25848 235.94355 132.3947 236.63607 134.50195 236.89258 A 1.9760044 1.9760044 0 0 0 136.03516 238.42578 A 1.9760044 1.9760044 0 0 0 138.00977 236.44922 A 1.9760044 1.9760044 0 0 0 136.03516 234.47266 z M 224.60938 236.96484 A 1.9760044 1.9760044 0 0 0 222.87305 238.69922 C 222.53229 238.66609 222.10224 238.63116 221.55859 238.61719 C 217.74846 238.51907 209.5126 239.35204 204.58398 247.56641 C 201.3928 252.88505 197.34452 255.16211 194.08594 256.13086 C 190.82736 257.09963 188.38867 256.75 188.38867 256.75 L 188.38672 256.76172 A 1.9760044 1.9760044 0 0 0 186.72461 255.10156 A 1.9760044 1.9760044 0 0 0 184.74805 257.07617 A 1.9760044 1.9760044 0 0 0 186.72461 259.05273 A 1.9760044 1.9760044 0 0 0 188.36328 257.41406 C 188.70479 257.45498 191.13439 257.69944 194.27539 256.76562 C 197.66337 255.75844 201.87661 253.36581 205.15234 247.90625 C 210.83019 238.44317 220.956 239.12447 223.07422 239.38086 A 1.9760044 1.9760044 0 0 0 224.60938 240.91602 A 1.9760044 1.9760044 0 0 0 226.58594 238.93945 A 1.9760044 1.9760044 0 0 0 224.60938 236.96484 z M 83.419922 249.19727 C 82.225697 249.19727 81.263672 250.15734 81.263672 251.35156 L 81.263672 258.89648 C 81.263672 260.09071 82.225697 261.05273 83.419922 261.05273 L 90.964844 261.05273 C 92.159069 261.05273 93.119141 260.09071 93.119141 258.89648 L 93.119141 251.35156 C 93.119141 250.15734 92.159069 249.19727 90.964844 249.19727 L 83.419922 249.19727 z M 171.99414 251.6875 C 170.79992 251.6875 169.83789 252.64953 169.83789 253.84375 L 169.83789 261.38867 C 169.83789 262.5829 170.79992 263.54297 171.99414 263.54297 L 179.53906 263.54297 C 180.73329 263.54297 181.69531 262.5829 181.69531 261.38867 L 181.69531 253.84375 C 181.69531 252.64953 180.73329 251.6875 179.53906 251.6875 L 171.99414 251.6875 z M 352.04297 253.81055 C 349.73763 253.81055 347.88281 255.66536 347.88281 257.9707 L 347.88281 272.53516 C 347.88281 274.8405 349.73763 276.69727 352.04297 276.69727 L 366.60742 276.69727 C 368.91276 276.69727 370.76953 274.8405 370.76953 272.53516 L 370.76953 257.9707 C 370.76953 255.66536 368.91276 253.81055 366.60742 253.81055 L 352.04297 253.81055 z M 338.4043 260.39844 A 3.8145068 3.8145068 0 0 0 334.58984 264.21289 A 3.8145068 3.8145068 0 0 0 338.4043 268.02734 A 3.8145068 3.8145068 0 0 0 342.21875 264.21289 A 3.8145068 3.8145068 0 0 0 338.4043 260.39844 z M 380.47852 260.39844 A 3.8145068 3.8145068 0 0 0 376.66406 264.21289 A 3.8145068 3.8145068 0 0 0 380.47852 268.02734 A 3.8145068 3.8145068 0 0 0 384.29297 264.21289 A 3.8145068 3.8145068 0 0 0 380.47852 260.39844 z M 495.67773 264.2207 C 493.37238 264.2207 491.51564 266.07747 491.51562 268.38281 L 491.51562 282.94727 C 491.51563 285.25261 493.37238 287.10937 495.67773 287.10938 L 510.24219 287.10938 C 512.54755 287.10937 514.40234 285.25261 514.40234 282.94727 L 514.40234 268.38281 C 514.40234 266.07747 512.54755 264.2207 510.24219 264.2207 L 495.67773 264.2207 z M 258.89062 269.83203 C 258.61227 269.82927 258.34832 269.83159 258.10352 269.83789 C 256.79789 269.8716 255.99805 270.00977 255.99805 270.00977 L 256.11914 270.67969 C 256.11914 270.67969 268.43204 268.48375 274.97266 279.38477 C 278.34016 284.99729 282.6714 287.45673 286.1543 288.49219 C 289.37753 289.45045 291.87208 289.20104 292.23047 289.1582 A 2.0313689 2.0313689 0 0 0 293.91602 290.84375 A 2.0313689 2.0313689 0 0 0 295.94727 288.8125 A 2.0313689 2.0313689 0 0 0 293.91602 286.7793 A 2.0313689 2.0313689 0 0 0 292.20703 288.49023 L 292.20508 288.47461 C 292.20508 288.47461 289.6995 288.83576 286.34961 287.83984 C 282.99974 286.84395 278.83528 284.50086 275.55469 279.0332 C 270.80464 271.11646 263.06681 269.87345 258.89062 269.83203 z M 482.03711 270.81055 A 3.8145068 3.8145068 0 0 0 478.22266 274.625 A 3.8145068 3.8145068 0 0 0 482.03711 278.43945 A 3.8145068 3.8145068 0 0 0 485.85156 274.625 A 3.8145068 3.8145068 0 0 0 482.03711 270.81055 z M 524.11328 270.81055 A 3.8145068 3.8145068 0 0 0 520.29883 274.625 A 3.8145068 3.8145068 0 0 0 524.11328 278.43945 A 3.8145068 3.8145068 0 0 0 527.92773 274.625 A 3.8145068 3.8145068 0 0 0 524.11328 270.81055 z M 34.667969 277.02734 C 33.473743 277.02734 32.511719 277.98741 32.511719 279.18164 L 32.511719 286.72656 C 32.511719 287.92079 33.473743 288.88281 34.667969 288.88281 L 42.212891 288.88281 C 43.407116 288.88281 44.369141 287.92079 44.369141 286.72656 L 44.369141 279.18164 C 44.369141 277.98741 43.407116 277.02734 42.212891 277.02734 L 34.667969 277.02734 z M 424.7168 278.93555 C 424.43838 278.93276 424.17645 278.9351 423.93164 278.94141 C 422.62602 278.97511 421.82617 279.11719 421.82617 279.11719 L 421.94336 279.78516 C 421.94336 279.78516 434.25823 277.58727 440.79883 288.48828 C 444.16635 294.1008 448.49757 296.5622 451.98047 297.59766 C 455.20337 298.55581 457.69633 298.30503 458.05469 298.26172 A 2.0313689 2.0313689 0 0 0 459.74219 299.94922 A 2.0313689 2.0313689 0 0 0 461.77344 297.91797 A 2.0313689 2.0313689 0 0 0 459.74219 295.88672 A 2.0313689 2.0313689 0 0 0 458.03516 297.59375 L 458.0332 297.58008 C 458.0332 297.58008 455.5237 297.94122 452.17383 296.94531 C 448.82394 295.9494 444.6634 293.60828 441.38281 288.14062 C 436.63276 280.22394 428.89298 278.97734 424.7168 278.93555 z M 49.398438 281.51758 A 1.9760043 1.9760043 0 0 0 47.421875 283.49414 A 1.9760043 1.9760043 0 0 0 49.398438 285.4707 A 1.9760043 1.9760043 0 0 0 51.060547 283.80859 L 51.0625 283.82031 C 51.0625 283.82031 53.501189 283.46873 56.759766 284.4375 C 60.018343 285.40627 64.066636 287.68721 67.257812 293.00586 C 73.829305 303.95835 86.279297 301.78125 86.279297 301.78125 L 86.166016 301.13086 C 86.166016 301.13086 74.188516 303.26992 67.826172 292.66602 C 64.55044 287.20646 60.337196 284.81191 56.949219 283.80469 C 55.25523 283.30106 53.758818 283.1413 52.6875 283.10742 C 52.419671 283.09895 52.178255 283.09961 51.966797 283.10352 C 51.379567 283.11436 51.092531 283.15558 51.042969 283.16211 A 1.9760043 1.9760043 0 0 0 49.398438 281.51758 z M 301.30273 283.27148 C 300.07505 283.27148 299.08594 284.26059 299.08594 285.48828 L 299.08594 293.24414 C 299.08594 294.47183 300.07505 295.45898 301.30273 295.45898 L 309.05859 295.45898 C 310.28628 295.45898 311.27539 294.47183 311.27539 293.24414 L 311.27539 285.48828 C 311.27539 284.26059 310.28628 283.27148 309.05859 283.27148 L 301.30273 283.27148 z M 131.68555 284.75195 C 129.44303 284.75195 127.63867 286.55631 127.63867 288.79883 L 127.63867 302.9668 C 127.63867 305.20931 129.44303 307.01367 131.68555 307.01367 L 145.85352 307.01367 C 148.09603 307.01367 149.90039 305.20931 149.90039 302.9668 L 149.90039 288.79883 C 149.90039 286.55631 148.09603 284.75195 145.85352 284.75195 L 131.68555 284.75195 z M 195.97461 285.88477 C 194.78038 285.88477 193.81836 286.84679 193.81836 288.04102 L 193.81836 295.58594 C 193.81836 296.78017 194.78038 297.74023 195.97461 297.74023 L 203.51953 297.74023 C 204.71376 297.74023 205.67383 296.78017 205.67383 295.58594 L 205.67383 288.04102 C 205.67383 286.84679 204.71376 285.88477 203.51953 285.88477 L 195.97461 285.88477 z M 210.70508 290.375 A 1.9760043 1.9760043 0 0 0 208.72852 292.35156 A 1.9760043 1.9760043 0 0 0 210.70508 294.32812 A 1.9760043 1.9760043 0 0 0 212.36523 292.66602 L 212.36719 292.67969 C 212.36719 292.67969 214.80588 292.3281 218.06445 293.29688 C 221.32303 294.26559 225.37132 296.54268 228.5625 301.86133 C 235.13399 312.81382 247.58789 310.64062 247.58789 310.64062 L 247.4707 309.98828 C 247.4707 309.98828 235.4932 312.12734 229.13086 301.52344 C 225.85513 296.06388 221.64188 293.66933 218.25391 292.66211 C 216.55992 292.15848 215.06546 291.99871 213.99414 291.96484 C 213.08082 291.93596 212.50265 291.99649 212.34375 292.01562 A 1.9760043 1.9760043 0 0 0 210.70508 290.375 z M 467.12891 292.37695 C 465.90122 292.37695 464.91211 293.36606 464.91211 294.59375 L 464.91211 302.34961 C 464.91211 303.5773 465.90122 304.56641 467.12891 304.56641 L 474.88477 304.56641 C 476.11245 304.56641 477.09961 303.5773 477.09961 302.34961 L 477.09961 294.59375 C 477.09961 293.36606 476.11245 292.37695 474.88477 292.37695 L 467.12891 292.37695 z M 118.19336 293.18359 A 3.710543 3.710543 0 0 0 114.48242 296.89453 A 3.710543 3.710543 0 0 0 118.19336 300.60547 A 3.710543 3.710543 0 0 0 121.9043 296.89453 A 3.710543 3.710543 0 0 0 118.19336 293.18359 z M 159.12109 293.18359 A 3.710543 3.710543 0 0 0 155.41016 296.89453 A 3.710543 3.710543 0 0 0 159.12109 300.60547 A 3.710543 3.710543 0 0 0 162.83203 296.89453 A 3.710543 3.710543 0 0 0 159.12109 293.18359 z M 30.298828 311.7793 C 28.056311 311.7793 26.251953 313.58567 26.251953 315.82812 L 26.251953 329.99609 C 26.251953 332.23861 28.056311 334.04297 30.298828 334.04297 L 44.466797 334.04297 C 46.709314 334.04297 48.513672 332.23861 48.513672 329.99609 L 48.513672 315.82812 C 48.513672 313.58567 46.709314 311.7793 44.466797 311.7793 L 30.298828 311.7793 z M 284.82031 315.45898 C 281.56342 315.45898 278.94141 318.08098 278.94141 321.33789 L 278.94141 341.91406 C 278.94141 345.17097 281.56342 347.79297 284.82031 347.79297 L 305.39648 347.79297 C 308.65337 347.79297 311.27539 345.17097 311.27539 341.91406 L 311.27539 321.33789 C 311.27539 318.08098 308.65337 315.45898 305.39648 315.45898 L 284.82031 315.45898 z M 16.806641 320.21289 A 3.710543 3.710543 0 0 0 13.095703 323.92383 A 3.710543 3.710543 0 0 0 16.806641 327.63477 A 3.710543 3.710543 0 0 0 20.517578 323.92383 A 3.710543 3.710543 0 0 0 16.806641 320.21289 z M 57.734375 320.21289 A 3.710543 3.710543 0 0 0 54.023438 323.92383 A 3.710543 3.710543 0 0 0 57.734375 327.63477 A 3.710543 3.710543 0 0 0 61.445312 323.92383 A 3.710543 3.710543 0 0 0 57.734375 320.21289 z M 417.01172 320.98633 C 415.78403 320.98633 414.79492 321.9755 414.79492 323.20312 L 414.79492 330.95898 C 414.79492 332.18667 415.78403 333.17578 417.01172 333.17578 L 424.76758 333.17578 C 425.99526 333.17578 426.98242 332.18667 426.98242 330.95898 L 426.98242 323.20312 C 426.98242 321.9755 425.99526 320.98633 424.76758 320.98633 L 417.01172 320.98633 z M 409.625 325.60352 A 2.0313689 2.0313689 0 0 0 407.63086 327.26367 C 407.32784 327.24149 406.86366 327.21866 406.24219 327.23828 C 405.14087 327.27305 403.60473 327.4393 401.86328 327.95703 C 398.38039 328.99249 394.04916 331.44999 390.68164 337.0625 C 384.84557 346.78934 374.43603 346.0917 372.25586 345.82812 A 2.0313689 2.0313689 0 0 0 370.67773 344.25 A 2.0313689 2.0313689 0 0 0 368.64648 346.28125 A 2.0313689 2.0313689 0 0 0 370.67773 348.3125 A 2.0313689 2.0313689 0 0 0 372.46094 346.5293 C 375.26665 346.80168 385.47339 347.06458 391.26367 337.41406 C 394.54428 331.9464 398.70872 329.60333 402.05859 328.60742 C 404.75924 327.80452 406.88636 327.88239 407.61914 327.94336 A 2.0313689 2.0313689 0 0 0 409.625 329.66602 A 2.0313689 2.0313689 0 0 0 411.65625 327.63477 A 2.0313689 2.0313689 0 0 0 409.625 325.60352 z M 265.22266 327.70703 A 5.3889625 5.3889625 0 0 0 259.83398 333.0957 A 5.3889625 5.3889625 0 0 0 265.22266 338.48438 A 5.3889625 5.3889625 0 0 0 270.61328 333.0957 A 5.3889625 5.3889625 0 0 0 265.22266 327.70703 z M 324.66602 327.70703 A 5.3889625 5.3889625 0 0 0 319.27734 333.0957 A 5.3889625 5.3889625 0 0 0 324.66602 338.48438 A 5.3889625 5.3889625 0 0 0 330.05469 333.0957 A 5.3889625 5.3889625 0 0 0 324.66602 327.70703 z M 209.77734 330.90039 C 208.58312 330.90039 207.62109 331.86241 207.62109 333.05664 L 207.62109 340.60156 C 207.62109 341.79579 208.58312 342.75586 209.77734 342.75586 L 217.32227 342.75586 C 218.51649 342.75586 219.47852 341.79579 219.47852 340.60156 L 219.47852 333.05664 C 219.47852 331.86241 218.51649 330.90039 217.32227 330.90039 L 209.77734 330.90039 z M 202.5918 335.39258 A 1.9760044 1.9760044 0 0 0 200.65234 337.00781 C 200.35864 336.98575 199.91006 336.96328 199.30469 336.98242 C 198.23337 337.0163 196.73696 337.17608 195.04297 337.67969 C 191.65499 338.68693 187.44175 341.07757 184.16602 346.53711 C 177.80366 357.14101 165.82227 355.00586 165.82227 355.00586 L 165.70898 355.65625 C 165.70898 355.65625 178.15896 357.83139 184.73047 346.87891 C 187.92165 341.56028 191.97189 339.28127 195.23047 338.3125 C 197.85813 337.5313 199.92809 337.60867 200.64062 337.66797 A 1.9760044 1.9760044 0 0 0 202.5918 339.34375 A 1.9760044 1.9760044 0 0 0 204.56836 337.36719 A 1.9760044 1.9760044 0 0 0 202.5918 335.39258 z M 66.669922 338.04297 C 65.475697 338.04297 64.513672 339.00499 64.513672 340.19922 L 64.513672 347.74414 C 64.513672 348.93837 65.475697 349.89844 66.669922 349.89844 L 74.214844 349.89844 C 75.409069 349.89844 76.371094 348.93837 76.371094 347.74414 L 76.371094 340.19922 C 76.371094 339.00499 75.409069 338.04297 74.214844 338.04297 L 66.669922 338.04297 z M 496.33008 338.16797 C 495.10241 338.16797 494.11328 339.15512 494.11328 340.38281 L 494.11328 348.13867 C 494.11328 349.36636 495.10241 350.35547 496.33008 350.35547 L 504.08594 350.35547 C 505.31363 350.35547 506.30273 349.36636 506.30273 348.13867 L 506.30273 340.38281 C 506.30273 339.15512 505.31363 338.16797 504.08594 338.16797 L 496.33008 338.16797 z M 355.53516 339.63281 C 354.30747 339.63281 353.31836 340.61997 353.31836 341.84766 L 353.31836 349.60352 C 353.31836 350.8312 354.30747 351.82031 355.53516 351.82031 L 363.29102 351.82031 C 364.5187 351.82031 365.50781 350.8312 365.50781 349.60352 L 365.50781 341.84766 C 365.50781 340.61997 364.5187 339.63281 363.29102 339.63281 L 355.53516 339.63281 z M 81.400391 342.5332 A 1.9760044 1.9760044 0 0 0 79.423828 344.50977 A 1.9760044 1.9760044 0 0 0 81.400391 346.48633 A 1.9760044 1.9760044 0 0 0 83.0625 344.82422 L 83.064453 344.83789 C 83.064453 344.83789 85.503141 344.48631 88.761719 345.45508 C 92.020296 346.42385 96.068583 348.70088 99.259766 354.01953 C 104.74974 363.16949 114.31719 363.15779 117.32617 362.90625 A 1.9760044 1.9760044 0 0 0 119.28516 364.62305 A 1.9760044 1.9760044 0 0 0 121.26172 362.64648 A 1.9760044 1.9760044 0 0 0 119.28516 360.66992 A 1.9760044 1.9760044 0 0 0 117.35547 362.24414 C 114.59023 362.50299 105.21207 362.65489 99.828125 353.68164 C 96.552394 348.22208 92.339149 345.82755 88.951172 344.82031 C 87.257184 344.31668 85.762723 344.15886 84.691406 344.125 C 83.782421 344.09625 83.205339 344.15627 83.042969 344.17578 A 1.9760044 1.9760044 0 0 0 81.400391 342.5332 z M 511.47266 342.7832 A 2.0313689 2.0313689 0 0 0 509.44141 344.81445 A 2.0313689 2.0313689 0 0 0 511.47266 346.8457 A 2.0313689 2.0313689 0 0 0 513.48047 345.12305 C 514.21517 345.06297 516.34087 344.9869 519.03906 345.78906 C 522.38895 346.78496 526.5534 349.12414 529.83398 354.5918 C 536.58961 365.85115 549.38672 363.61523 549.38672 363.61523 L 549.26953 362.94727 C 549.26953 362.94727 536.95859 365.14515 530.41797 354.24414 C 527.05045 348.63162 522.71532 346.17022 519.23242 345.13477 C 517.49096 344.61704 515.9568 344.4528 514.85547 344.41797 C 514.23555 344.3984 513.77385 344.42026 513.4707 344.44336 A 2.0313689 2.0313689 0 0 0 511.47266 342.7832 z M 126.4707 356.17969 C 125.27648 356.17969 124.31445 357.14171 124.31445 358.33594 L 124.31445 365.88086 C 124.31445 367.07508 125.27648 368.03516 126.4707 368.03516 L 134.01562 368.03516 C 135.20985 368.03516 136.17188 367.07508 136.17188 365.88086 L 136.17188 358.33594 C 136.17188 357.14171 135.20985 356.17969 134.01562 356.17969 L 126.4707 356.17969 z "
     transform="matrix(0.56666668,0,0,0.56666668,-45.833338,0)" />
</svg>
