<?xml version="1.0" encoding="UTF-8"?>
<!-- Created with Inkscape (http://www.inkscape.org/) -->
<svg width="150" height="150" version="1.1" viewBox="0 0 39.688 39.688" xmlns="http://www.w3.org/2000/svg">
 <g transform="matrix(.34139 0 0 .34139 -8.5743 -59.818)">
  <path d="m76.781 178.69c-8.9402 0.0545-18.945 3.0151-25.223 7.8928l-15.842 12.308c-3.5719 2.7752-5.3375 5.7089-5.3964 8.3673l-0.0258 1.6772v57.679h0.0396c0.13482 3.4095 3.1213 6.3251 8.7954 7.7947l42.732 11.067c10.262 2.6576 25.262-0.43892 33.633-6.9426l15.839-12.308c3.5262-2.7397 5.1603-5.6234 5.2805-8.2432l0.0422-1e-3 0.0913-59.258-0.0132 0.0164c-1e-3 -3.512-3.007-6.5268-8.8131-8.0305l-42.731-11.069c-2.5654-0.66441-5.4268-0.96847-8.4068-0.95031z" fill="#047dff" stroke-width="2.6384"/>
  <path d="m74.781 237.89a4.1032 4.4694 0 0 0-2.8968 1.3188l-12.792 14.024-4.9628-5.204a4.1032 4.4694 0 0 0-5.8012 0.11832 4.1032 4.4694 0 0 0 0.10863 6.321l7.8727 8.2554a4.1036 4.4699 0 0 0 5.7563-0.0693l15.641-17.143a4.1032 4.4694 0 0 0-0.01907-6.321 4.1032 4.4694 0 0 0-2.9062-1.3005z" color="#000000" fill="#fff" stroke="#fff" stroke-linecap="round" stroke-linejoin="round" stroke-width="1.7305"/>
  <path d="m76.781 178.69c-8.9402 0.0545-18.945 3.0151-25.223 7.8928l-15.491 12.097c-6.2641 4.3386-5.8203 8.4888-5.7725 10.255-0.09826 4.0056 5.0536 6.7343 8.835 7.7947 12.599 3.5329 42.732 11.067 42.732 11.067 10.262 2.6576 23.182 0.74982 31.553-5.7538l17.919-13.496c3.5262-2.7397 5.6503-5.7787 5.4764-9.226-0.30655-6.0753-5.1602-7.4949-9.2388-8.6115l-42.381-11.069c-2.5654-0.66441-5.4268-0.96847-8.4068-0.95031z" fill="#049bff" stroke-width="2.6384"/>
 </g>
</svg>
