<?xml version="1.0" encoding="UTF-8" standalone="no"?>
<!-- Created with Inkscape (http://www.inkscape.org/) -->

<svg
   width="1280"
   height="640"
   viewBox="0 0 338.66666 169.33334"
   version="1.1"
   id="svg5"
   inkscape:version="1.1.1 (3bf5ae0d25, 2021-09-20)"
   sodipodi:docname="social_media_1280_640_ink.svg"
   xmlns:inkscape="http://www.inkscape.org/namespaces/inkscape"
   xmlns:sodipodi="http://sodipodi.sourceforge.net/DTD/sodipodi-0.dtd"
   xmlns:xlink="http://www.w3.org/1999/xlink"
   xmlns="http://www.w3.org/2000/svg"
   xmlns:svg="http://www.w3.org/2000/svg">
  <sodipodi:namedview
     id="namedview7"
     pagecolor="#ffffff"
     bordercolor="#666666"
     borderopacity="1.0"
     inkscape:pageshadow="2"
     inkscape:pageopacity="0.0"
     inkscape:pagecheckerboard="0"
     inkscape:document-units="mm"
     showgrid="false"
     units="px"
     inkscape:zoom="0.35355339"
     inkscape:cx="528.91587"
     inkscape:cy="569.92806"
     inkscape:window-width="1366"
     inkscape:window-height="715"
     inkscape:window-x="-8"
     inkscape:window-y="-8"
     inkscape:window-maximized="1"
     inkscape:current-layer="layer1" />
  <defs
     id="defs2">
    <inkscape:path-effect
       effect="spiro"
       id="path-effect9838"
       is_visible="true"
       lpeversion="1" />
    <linearGradient
       inkscape:collect="always"
       id="linearGradient4610">
      <stop
         style="stop-color:#003c91;stop-opacity:1"
         offset="0"
         id="stop4606" />
      <stop
         style="stop-color:#0487ff;stop-opacity:0.5494737"
         offset="1"
         id="stop4608" />
    </linearGradient>
    <linearGradient
       inkscape:collect="always"
       id="linearGradient2371">
      <stop
         style="stop-color:#003c91;stop-opacity:1"
         offset="0"
         id="stop2363" />
      <stop
         style="stop-color:#046cff;stop-opacity:0.31789473"
         offset="1"
         id="stop2369" />
    </linearGradient>
    <inkscape:path-effect
       effect="spiro"
       id="path-effect3571"
       is_visible="true"
       lpeversion="1" />
    <inkscape:path-effect
       effect="spiro"
       id="path-effect69370"
       is_visible="true"
       lpeversion="1" />
    <linearGradient
       inkscape:collect="always"
       id="linearGradient1349">
      <stop
         style="stop-color:#046cff;stop-opacity:1"
         offset="0"
         id="stop1345" />
      <stop
         style="stop-color:#1097ff;stop-opacity:1;"
         offset="0.81669992"
         id="stop7772" />
      <stop
         style="stop-color:#13a7ff;stop-opacity:1"
         offset="1"
         id="stop1347" />
    </linearGradient>
    <inkscape:path-effect
       effect="spiro"
       id="path-effect2490"
       is_visible="true"
       lpeversion="1" />
    <marker
       style="overflow:visible"
       id="DotS"
       refX="0"
       refY="0"
       orient="auto"
       inkscape:stockid="DotS"
       inkscape:isstock="true">
      <path
         transform="matrix(0.2,0,0,0.2,1.48,0.2)"
         style="fill:context-stroke;fill-rule:evenodd;stroke:context-stroke;stroke-width:1pt"
         d="m -2.5,-1 c 0,2.76 -2.24,5 -5,5 -2.76,0 -5,-2.24 -5,-5 0,-2.76 2.24,-5 5,-5 2.76,0 5,2.24 5,5 z"
         id="path1020" />
    </marker>
    <marker
       style="overflow:visible"
       id="TriangleOutS"
       refX="0"
       refY="0"
       orient="auto"
       inkscape:stockid="TriangleOutS"
       inkscape:isstock="true">
      <path
         transform="scale(0.2)"
         style="fill:context-stroke;fill-rule:evenodd;stroke:context-stroke;stroke-width:1pt"
         d="M 5.77,0 -2.88,5 V -5 Z"
         id="path1101" />
    </marker>
    <marker
       style="overflow:visible"
       id="Arrow2Mstart"
       refX="0"
       refY="0"
       orient="auto"
       inkscape:stockid="Arrow2Mstart"
       inkscape:isstock="true">
      <path
         transform="scale(0.6)"
         d="M 8.7185878,4.0337352 -2.2072895,0.01601326 8.7185884,-4.0017078 c -1.7454984,2.3720609 -1.7354408,5.6174519 -6e-7,8.035443 z"
         style="fill:context-stroke;fill-rule:evenodd;stroke:context-stroke;stroke-width:0.625;stroke-linejoin:round"
         id="path977" />
    </marker>
    <marker
       style="overflow:visible"
       id="DotL"
       refX="0"
       refY="0"
       orient="auto"
       inkscape:stockid="DotL"
       inkscape:isstock="true">
      <path
         transform="matrix(0.8,0,0,0.8,5.92,0.8)"
         style="fill:context-stroke;fill-rule:evenodd;stroke:context-stroke;stroke-width:1pt"
         d="m -2.5,-1 c 0,2.76 -2.24,5 -5,5 -2.76,0 -5,-2.24 -5,-5 0,-2.76 2.24,-5 5,-5 2.76,0 5,2.24 5,5 z"
         id="path1014" />
    </marker>
    <marker
       style="overflow:visible"
       id="Arrow1Lend"
       refX="0"
       refY="0"
       orient="auto"
       inkscape:stockid="Arrow1Lend"
       inkscape:isstock="true">
      <path
         transform="matrix(-0.8,0,0,-0.8,-10,0)"
         style="fill:context-stroke;fill-rule:evenodd;stroke:context-stroke;stroke-width:1pt"
         d="M 0,0 5,-5 -12.5,0 5,5 Z"
         id="path956" />
    </marker>
    <marker
       style="overflow:visible"
       id="TriangleOutL"
       refX="0"
       refY="0"
       orient="auto"
       inkscape:stockid="TriangleOutL"
       inkscape:isstock="true">
      <path
         transform="scale(0.8)"
         style="fill:context-stroke;fill-rule:evenodd;stroke:context-stroke;stroke-width:1pt"
         d="M 5.77,0 -2.88,5 V -5 Z"
         id="path1095" />
    </marker>
    <filter
       style="color-interpolation-filters:sRGB"
       inkscape:label="Drop Shadow"
       id="filter1524"
       x="-0.073754529"
       y="-0.073754529"
       width="1.1671339"
       height="1.1802172">
      <feFlood
         flood-opacity="0.24795640326975477"
         flood-color="rgb(0,0,0)"
         result="flood"
         id="feFlood1514" />
      <feComposite
         in="flood"
         in2="SourceGraphic"
         operator="in"
         result="composite1"
         id="feComposite1516" />
      <feGaussianBlur
         in="composite1"
         stdDeviation="1.3085714285714285"
         result="blur"
         id="feGaussianBlur1518" />
      <feOffset
         dx="0.8356545961002837"
         dy="1.3927576601671348"
         result="offset"
         id="feOffset1520" />
      <feComposite
         in="SourceGraphic"
         in2="offset"
         operator="over"
         result="composite2"
         id="feComposite1522" />
    </filter>
    <linearGradient
       inkscape:collect="always"
       xlink:href="#linearGradient1349"
       id="linearGradient1241"
       x1="54.250332"
       y1="69.280067"
       x2="63.484718"
       y2="86.227188"
       gradientUnits="userSpaceOnUse"
       gradientTransform="matrix(1.6610337,0,0,1.6610337,-67.690207,-104.32071)" />
    <linearGradient
       inkscape:collect="always"
       xlink:href="#linearGradient2371"
       id="linearGradient2195"
       x1="22.930143"
       y1="19.13965"
       x2="23.641508"
       y2="14.431426"
       gradientUnits="userSpaceOnUse"
       gradientTransform="matrix(1.2702028,0,0,1.2702028,-9.0800381,-6.4342047)" />
    <linearGradient
       inkscape:collect="always"
       xlink:href="#linearGradient4610"
       id="linearGradient3788"
       x1="22.025873"
       y1="25.24556"
       x2="22.233021"
       y2="29.280455"
       gradientUnits="userSpaceOnUse"
       gradientTransform="matrix(1.2702028,0,0,1.2702028,-9.0800381,-6.4342047)" />
    <style
       id="style6303">.cls-1{fill:#1697f6;}.cls-2{fill:#7bc6ff;}.cls-3{fill:#1867c0;}.cls-4{fill:#aeddff;}</style>
  </defs>
  <g
     inkscape:label="Layer 1"
     inkscape:groupmode="layer"
     id="layer1">
    <g
       id="rect16251"
       transform="translate(-185.34733,179.43227)" />
    <g
       id="rect11869"
       transform="translate(-238.78828,230.2015)" />
    <g
       id="rect11874"
       transform="translate(-238.78828,230.2015)" />
    <g
       id="rect12609"
       transform="matrix(1.0178766,0,0,0.98861546,-239.46578,230.65155)" />
    <g
       id="rect3272"
       transform="translate(-238.78828,230.2015)" />
    <rect
       style="fill:#ffffff;fill-opacity:1;stroke-width:0.529167;stroke-linecap:round;stroke-linejoin:bevel;stop-color:#000000"
       id="rect8281"
       width="338.66666"
       height="169.33333"
       x="0"
       y="0" />
    <g
       id="g8257"
       transform="translate(0,22.092326)">
      <g
         id="g9834"
         transform="matrix(1.3105149,0,0,1.3105149,133.8571,12.273921)">
        <g
           id="g9832"
           transform="matrix(1.0245451,0,0,1.0245451,0.53879643,-0.58447965)">
          <path
             style="fill:none;stroke:url(#linearGradient1241);stroke-width:12.8979;stroke-linecap:round;stroke-linejoin:miter;stroke-miterlimit:4;stroke-dasharray:none;stroke-opacity:1"
             d="m 23.101593,7.394718 c -1.340081,4.384373 -2.529125,8.814908 -3.564314,13.281106 -0.586674,2.531134 -1.125367,5.083416 -1.31643,7.674616 -0.105361,1.428909 -0.103822,2.873032 0.135541,4.285684 0.239363,1.412652 0.723211,2.796721 1.526544,3.983118 1.39174,2.055382 3.756412,3.423545 6.232984,3.591259 2.476572,0.167713 5.009909,-0.87369 6.641648,-2.744242 1.616141,-1.852671 2.307893,-4.454446 1.905959,-6.879885 -0.401933,-2.425438 -1.867439,-4.639458 -3.897184,-6.026698 -1.437732,-0.982626 -3.123468,-1.557355 -4.835694,-1.875012 -1.712227,-0.317657 -3.45983,-0.388042 -5.2007,-0.432737 -4.393576,-0.1128 -8.791224,-0.06694 -13.1814922,0.137451"
             id="path9826"
             sodipodi:nodetypes="csssszac"
             inkscape:export-filename="C:\dev\tb\public\img\logo_worm_256_flat.png"
             inkscape:export-xdpi="163.7"
             inkscape:export-ydpi="163.7"
             inkscape:original-d="m 23.101593,7.394718 c -0.695547,2.2974565 -3.129015,11.363516 -3.564314,13.281106 -1.084029,4.775407 0.25454,0.543094 -1.31643,7.674616 -0.680932,3.091141 -2.629902,7.986028 1.662085,8.268802 4.291983,0.282781 12.365986,4.855783 12.874632,0.847017 0.508648,-4.008768 0.896065,-9.955123 -1.991225,-12.906583 -2.887292,-2.951461 -6.623552,-1.938445 -10.036394,-2.307749 -4.368567,-0.472725 -8.268363,-0.03151 -13.1814922,0.137451"
             inkscape:path-effect="#path-effect9838" />
          <path
             style="opacity:0.7;fill:url(#linearGradient2195);fill-opacity:1;stroke:none;stroke-width:0.336074px;stroke-linecap:butt;stroke-linejoin:miter;stroke-opacity:1"
             d="M 27.216007,16.334842 C 22.626123,15.474898 14.086822,15.754139 14.086822,15.754139 l 1.420891,-5.354914 12.968573,1.398612 c 0,0 -0.997353,3.548539 -1.260279,4.537005 z"
             id="path9828"
             sodipodi:nodetypes="ccccc" />
          <path
             style="opacity:0.7;fill:url(#linearGradient3788);fill-opacity:1;stroke:none;stroke-width:0.336074px;stroke-linecap:butt;stroke-linejoin:miter;stroke-opacity:1"
             d="m 11.672562,28.685579 c 0,0 6.774595,-0.495379 12.973668,0.311465 -0.142957,1.326683 0.05941,2.513572 0.05941,2.513572 0,0 -10.615662,1.950333 -12.746222,2.310293 -0.318551,-1.45205 -0.286857,-5.13533 -0.286856,-5.13533 z"
             id="path9830"
             sodipodi:nodetypes="ccccc" />
        </g>
      </g>
      <text
         xml:space="preserve"
         style="font-style:normal;font-weight:normal;font-size:22.2535px;line-height:1.25;font-family:sans-serif;fill:#000000;fill-opacity:1;stroke:none;stroke-width:0.556338"
         x="125.86404"
         y="96.799065"
         id="text4675"><tspan
           sodipodi:role="line"
           id="tspan4673"
           style="stroke-width:0.556338"
           x="125.86404"
           y="96.799065">taskbox</tspan></text>
      <text
         xml:space="preserve"
         style="font-style:normal;font-weight:normal;font-size:7.76111px;line-height:1.25;font-family:sans-serif;fill:#000000;fill-opacity:1;stroke:none;stroke-width:0.264583"
         x="97.933395"
         y="110.75649"
         id="text5771"><tspan
           sodipodi:role="line"
           id="tspan5769"
           style="font-size:7.76111px;stroke-width:0.264583"
           x="97.933395"
           y="110.75649">A flowing way to manage your tasks.</tspan></text>
    </g>
    <g
       id="g6919"
       transform="matrix(0.26458333,0,0,0.26458333,257.80095,40.02974)">
      <g
         id="g6911">
        <g
           id="g6909">
          <path
             d="m 511.7,312.7 -60,-270 C 450.2,35.799 443.9,31 437,31 H 75 c -6.899,0 -13.2,4.799 -14.7,11.7 l -60,270 C 0,313.9 0,314.799 0,316 l 166,90 h 180 l 166,-90 c 0,-1.201 0,-2.1 -0.3,-3.3 z"
             fill="url(#SVGID_1_)"
             id="path6907" />
        </g>
      </g>
      <g
         id="g6917">
        <g
           id="g6915">
          <path
             d="m 394.6,316 c -11.521,0 -22.049,6.526 -27.173,16.846 l -17.292,34.825 C 347.602,372.773 342.397,376 336.7,376 H 175.299 c -5.697,0 -10.902,-3.227 -13.435,-8.329 L 144.572,332.846 C 139.449,322.526 128.922,316 117.4,316 H 0 v 150 c 0,8.284 6.716,15 15,15 h 482 c 8.284,0 15,-6.716 15,-15 V 316 Z M 206.605,206.605 241,172.211 V 286 c 0,8.291 6.709,15 15,15 8.291,0 15,-6.709 15,-15 V 172.211 l 34.395,34.395 c 5.859,5.859 15.351,5.859 21.211,0 5.859,-5.859 5.859,-15.352 0,-21.211 l -59.982,-59.982 c -5.856,-5.871 -15.428,-5.835 -21.248,0 l -59.982,59.982 c -5.859,5.859 -5.859,15.352 0,21.211 5.859,5.859 15.352,5.859 21.211,-0.001 z"
             fill="url(#SVGID_2_)"
             id="path6913" />
        </g>
      </g>
    </g>
  </g>
</svg>
