<?xml version="1.0" encoding="UTF-8"?>
<!-- Created with Inkscape (http://www.inkscape.org/) -->
<svg width="1280" height="640" version="1.1" viewBox="0 0 338.67 169.33" xmlns="http://www.w3.org/2000/svg" xmlns:xlink="http://www.w3.org/1999/xlink">
 <defs>
  <linearGradient id="linearGradient1241" x1="54.25" x2="63.485" y1="69.28" y2="86.227" gradientTransform="matrix(1.661 0 0 1.661 -67.69 -104.32)" gradientUnits="userSpaceOnUse">
   <stop stop-color="#046cff" offset="0"/>
   <stop stop-color="#1097ff" offset=".8167"/>
   <stop stop-color="#13a7ff" offset="1"/>
  </linearGradient>
  <linearGradient id="linearGradient2195" x1="22.93" x2="23.642" y1="19.14" y2="14.431" gradientTransform="matrix(1.2702 0 0 1.2702 -9.08 -6.4342)" gradientUnits="userSpaceOnUse">
   <stop stop-color="#003c91" offset="0"/>
   <stop stop-color="#046cff" stop-opacity=".31789" offset="1"/>
  </linearGradient>
  <linearGradient id="linearGradient3788" x1="22.026" x2="22.233" y1="25.246" y2="29.28" gradientTransform="matrix(1.2702 0 0 1.2702 -9.08 -6.4342)" gradientUnits="userSpaceOnUse">
   <stop stop-color="#003c91" offset="0"/>
   <stop stop-color="#0487ff" stop-opacity=".54947" offset="1"/>
  </linearGradient>
  <style>.cls-1{fill:#1697f6;}.cls-2{fill:#7bc6ff;}.cls-3{fill:#1867c0;}.cls-4{fill:#aeddff;}</style>
 </defs>
 <rect width="338.67" height="169.33" fill="#fff" stop-color="#000000" stroke-linecap="round" stroke-linejoin="bevel" stroke-width=".52917"/>
 <g transform="translate(0 22.092)">
  <g transform="matrix(1.3105 0 0 1.3105 133.86 12.274)">
   <g transform="matrix(1.0245 0 0 1.0245 .5388 -.58448)">
    <path d="m23.102 7.3947c-1.3401 4.3844-2.5291 8.8149-3.5643 13.281-0.58667 2.5311-1.1254 5.0834-1.3164 7.6746-0.10536 1.4289-0.10382 2.873 0.13554 4.2857s0.72321 2.7967 1.5265 3.9831c1.3917 2.0554 3.7564 3.4235 6.233 3.5913 2.4766 0.16771 5.0099-0.87369 6.6416-2.7442 1.6161-1.8527 2.3079-4.4544 1.906-6.8799-0.40193-2.4254-1.8674-4.6395-3.8972-6.0267-1.4377-0.98263-3.1235-1.5574-4.8357-1.875-1.7122-0.31766-3.4598-0.38804-5.2007-0.43274-4.3936-0.1128-8.7912-0.06694-13.181 0.13745" fill="none" stroke="url(#linearGradient1241)" stroke-linecap="round" stroke-width="12.898"/>
    <path d="m27.216 16.335c-4.5899-0.85994-13.129-0.5807-13.129-0.5807l1.4209-5.3549 12.969 1.3986s-0.99735 3.5485-1.2603 4.537z" fill="url(#linearGradient2195)" opacity=".7"/>
    <path d="m11.673 28.686s6.7746-0.49538 12.974 0.31146c-0.14296 1.3267 0.05941 2.5136 0.05941 2.5136s-10.616 1.9503-12.746 2.3103c-0.31855-1.452-0.28686-5.1353-0.28686-5.1353z" fill="url(#linearGradient3788)" opacity=".7"/>
   </g>
  </g>
  <text x="125.86404" y="96.799065" fill="#000000" font-family="sans-serif" font-size="22.254px" stroke-width=".55634" style="line-height:1.25" xml:space="preserve"><tspan x="125.86404" y="96.799065" stroke-width=".55634">taskbox</tspan></text>
  <text x="97.933395" y="110.75649" fill="#000000" font-family="sans-serif" font-size="7.7611px" stroke-width=".26458" style="line-height:1.25" xml:space="preserve"><tspan x="97.933395" y="110.75649" font-size="7.7611px" stroke-width=".26458">A flowing way to manage your tasks.</tspan></text>
 </g>
 <g transform="matrix(.26458 0 0 .26458 257.8 40.03)">
  <path d="m511.7 312.7-60-270c-1.5-6.901-7.8-11.7-14.7-11.7h-362c-6.899 0-13.2 4.799-14.7 11.7l-60 270c-0.3 1.2-0.3 2.099-0.3 3.3l166 90h180l166-90c0-1.201 0-2.1-0.3-3.3z" fill="url(#SVGID_1_)"/>
  <path d="m394.6 316c-11.521 0-22.049 6.526-27.173 16.846l-17.292 34.825c-2.533 5.102-7.738 8.329-13.435 8.329h-161.4c-5.697 0-10.902-3.227-13.435-8.329l-17.292-34.825c-5.123-10.32-15.65-16.846-27.172-16.846h-117.4v150c0 8.284 6.716 15 15 15h482c8.284 0 15-6.716 15-15v-150zm-188-109.4 34.395-34.394v113.79c0 8.291 6.709 15 15 15s15-6.709 15-15v-113.79l34.395 34.395c5.859 5.859 15.351 5.859 21.211 0 5.859-5.859 5.859-15.352 0-21.211l-59.982-59.982c-5.856-5.871-15.428-5.835-21.248 0l-59.982 59.982c-5.859 5.859-5.859 15.352 0 21.211s15.352 5.859 21.211-1e-3z" fill="url(#SVGID_2_)"/>
 </g>
</svg>
