<?xml version="1.0" encoding="UTF-8" standalone="no"?>
<!-- Created with Inkscape (http://www.inkscape.org/) -->

<svg
   width="1280"
   height="640"
   version="1.1"
   viewBox="0 0 338.67 169.33"
   id="svg51"
   sodipodi:docname="social_media_1280_640.svg"
   inkscape:version="1.1.1 (3bf5ae0d25, 2021-09-20)"
   xmlns:inkscape="http://www.inkscape.org/namespaces/inkscape"
   xmlns:sodipodi="http://sodipodi.sourceforge.net/DTD/sodipodi-0.dtd"
   xmlns="http://www.w3.org/2000/svg"
   xmlns:svg="http://www.w3.org/2000/svg">
  <sodipodi:namedview
     id="namedview53"
     pagecolor="#ffffff"
     bordercolor="#666666"
     borderopacity="1.0"
     inkscape:pageshadow="2"
     inkscape:pageopacity="0.0"
     inkscape:pagecheckerboard="0"
     showgrid="false"
     inkscape:zoom="0.29223397"
     inkscape:cx="550.92841"
     inkscape:cy="210.44781"
     inkscape:window-width="1366"
     inkscape:window-height="715"
     inkscape:window-x="-8"
     inkscape:window-y="-8"
     inkscape:window-maximized="1"
     inkscape:current-layer="svg51" />
  <defs
     id="defs21">
    <linearGradient
       id="linearGradient1241"
       x1="54.25"
       x2="63.485"
       y1="69.28"
       y2="86.227"
       gradientTransform="matrix(1.661,0,0,1.661,-67.69,-104.32)"
       gradientUnits="userSpaceOnUse">
      <stop
         stop-color="#046cff"
         offset="0"
         id="stop2" />
      <stop
         stop-color="#1097ff"
         offset=".8167"
         id="stop4" />
      <stop
         stop-color="#13a7ff"
         offset="1"
         id="stop6" />
    </linearGradient>
    <linearGradient
       id="linearGradient2195"
       x1="22.93"
       x2="23.642"
       y1="19.14"
       y2="14.431"
       gradientTransform="matrix(1.2702,0,0,1.2702,-9.08,-6.4342)"
       gradientUnits="userSpaceOnUse">
      <stop
         stop-color="#003c91"
         offset="0"
         id="stop9" />
      <stop
         stop-color="#046cff"
         stop-opacity=".31789"
         offset="1"
         id="stop11" />
    </linearGradient>
    <linearGradient
       id="linearGradient3788"
       x1="22.026"
       x2="22.233"
       y1="25.246"
       y2="29.28"
       gradientTransform="matrix(1.2702,0,0,1.2702,-9.08,-6.4342)"
       gradientUnits="userSpaceOnUse">
      <stop
         stop-color="#003c91"
         offset="0"
         id="stop14" />
      <stop
         stop-color="#0487ff"
         stop-opacity=".54947"
         offset="1"
         id="stop16" />
    </linearGradient>
    <style
       id="style19">.cls-1{fill:#1697f6;}.cls-2{fill:#7bc6ff;}.cls-3{fill:#1867c0;}.cls-4{fill:#aeddff;}</style>
  </defs>
  <rect
     width="338.67"
     height="169.33"
     fill="#fff"
     stop-color="#000000"
     stroke-linecap="round"
     stroke-linejoin="bevel"
     stroke-width=".52917"
     id="rect23" />
  <g
     transform="matrix(1.3244752,0,0,1.3244752,132.21643,26.990944)"
     id="g33">
    <g
       transform="matrix(1.0245,0,0,1.0245,0.5388,-0.58448)"
       id="g31">
      <path
         d="m 23.102,7.3947 c -1.3401,4.3844 -2.5291,8.8149 -3.5643,13.281 -0.58667,2.5311 -1.1254,5.0834 -1.3164,7.6746 -0.10536,1.4289 -0.10382,2.873 0.13554,4.2857 0.23936,1.4127 0.72321,2.7967 1.5265,3.9831 1.3917,2.0554 3.7564,3.4235 6.233,3.5913 2.4766,0.16771 5.0099,-0.87369 6.6416,-2.7442 1.6161,-1.8527 2.3079,-4.4544 1.906,-6.8799 -0.40193,-2.4254 -1.8674,-4.6395 -3.8972,-6.0267 -1.4377,-0.98263 -3.1235,-1.5574 -4.8357,-1.875 -1.7122,-0.31766 -3.4598,-0.38804 -5.2007,-0.43274 -4.3936,-0.1128 -8.7912,-0.06694 -13.181,0.13745"
         fill="none"
         stroke="url(#linearGradient1241)"
         stroke-linecap="round"
         stroke-width="12.898"
         id="path25"
         style="stroke:url(#linearGradient1241)" />
      <path
         d="M 27.216,16.335 C 22.6261,15.47506 14.087,15.7543 14.087,15.7543 l 1.4209,-5.3549 12.969,1.3986 c 0,0 -0.99735,3.5485 -1.2603,4.537 z"
         fill="url(#linearGradient2195)"
         opacity="0.7"
         id="path27"
         style="fill:url(#linearGradient2195)" />
      <path
         d="m 11.673,28.686 c 0,0 6.7746,-0.49538 12.974,0.31146 -0.14296,1.3267 0.05941,2.5136 0.05941,2.5136 0,0 -10.616,1.9503 -12.746,2.3103 -0.31855,-1.452 -0.28686,-5.1353 -0.28686,-5.1353 z"
         fill="url(#linearGradient3788)"
         opacity="0.7"
         id="path29"
         style="fill:url(#linearGradient3788)" />
    </g>
  </g>
  <text
     x="126.3439"
     y="116.15306"
     fill="#000000"
     font-family="sans-serif"
     font-size="24.8752px"
     stroke-width="0.621867"
     style="font-style:normal;font-variant:normal;font-weight:600;font-stretch:normal;line-height:1.25;font-family:'Segoe UI';-inkscape-font-specification:'Segoe UI Semi-Bold';fill:#131313;fill-opacity:1"
     xml:space="preserve"
     id="text37"><tspan
       x="126.3439"
       y="116.15306"
       stroke-width="0.621867"
       id="tspan35"
       style="font-style:normal;font-variant:normal;font-weight:normal;font-stretch:normal;font-family:Arial;-inkscape-font-specification:Arial;fill:#131313;fill-opacity:1">taskbox</tspan></text>
  <text
     x="100.79313"
     y="131.47911"
     fill="#000000"
     font-family="sans-serif"
     font-size="7.6218px"
     stroke-width="0.292662"
     style="font-size:7.45044px;line-height:1.25;fill:#222222;fill-opacity:1"
     xml:space="preserve"
     id="text41"><tspan
       x="100.79313"
       y="131.47911"
       font-size="7.6218px"
       stroke-width="0.292662"
       id="tspan39"
       style="font-size:7.45044px;fill:#222222;fill-opacity:1">A flowing way to manage your tasks.</tspan></text>
  <g
     transform="matrix(.26458 0 0 .26458 257.8 40.03)"
     id="g49">
    <path
       d="m511.7 312.7-60-270c-1.5-6.901-7.8-11.7-14.7-11.7h-362c-6.899 0-13.2 4.799-14.7 11.7l-60 270c-0.3 1.2-0.3 2.099-0.3 3.3l166 90h180l166-90c0-1.201 0-2.1-0.3-3.3z"
       fill="url(#SVGID_1_)"
       id="path45" />
    <path
       d="m394.6 316c-11.521 0-22.049 6.526-27.173 16.846l-17.292 34.825c-2.533 5.102-7.738 8.329-13.435 8.329h-161.4c-5.697 0-10.902-3.227-13.435-8.329l-17.292-34.825c-5.123-10.32-15.65-16.846-27.172-16.846h-117.4v150c0 8.284 6.716 15 15 15h482c8.284 0 15-6.716 15-15v-150zm-188-109.4 34.395-34.394v113.79c0 8.291 6.709 15 15 15s15-6.709 15-15v-113.79l34.395 34.395c5.859 5.859 15.351 5.859 21.211 0 5.859-5.859 5.859-15.352 0-21.211l-59.982-59.982c-5.856-5.871-15.428-5.835-21.248 0l-59.982 59.982c-5.859 5.859-5.859 15.352 0 21.211s15.352 5.859 21.211-1e-3z"
       fill="url(#SVGID_2_)"
       id="path47" />
  </g>
</svg>
